<svg xmlns="http://www.w3.org/2000/svg" width="146.007" height="142.942" viewBox="0 0 146.007 142.942">
  <g id="swsw" transform="translate(-247.915 -1317)">
    <path id="Path_59" data-name="Path 59" d="M28.637,20.435c-3.887,7.43-8.069,11.513-15.7,11.513C1.379,31.949-6.936,22.9-6.936,9.315c0-10.726,6.692-20.862,19.238-20.862,8.02,0,12.94,3.149,14.958,11.12l2.214-.492C29.031-5,28.49-8.1,27.9-12.186c-2.067-.344-7.38-2.067-13.678-2.067C-2.852-14.253-15.1-4.314-15.1,10.841c0,11.366,8.463,23.913,27.455,23.913,5.462,0,11.956-1.574,14.121-2.067a73.4,73.4,0,0,0,4.281-11.415Zm22.1-33.606v2.165c5.462.344,6.1.64,6.1,7.085V24.47c0,6-.64,6.593-6.495,7.085v2.067H70.912V31.555c-6.692-.492-7.331-.886-7.331-7.036V13.547l5.511,1.378a21.086,21.086,0,0,0,3.444-.1C79.72,13.99,86.9,9.463,86.9.065c0-4.723-1.87-8.069-4.822-10.234s-7.184-3-12.448-3ZM63.581-6.577c0-2.017.3-2.8.787-3.3s2.017-.886,4.035-.886c5.806,0,10.825,3.247,10.825,11.071,0,9.152-5.806,11.612-10.382,11.612a16.275,16.275,0,0,1-5.265-.886Z" transform="translate(284.395 1374.746)" fill="#f49548"/>
    <path id="Path_60" data-name="Path 60" d="M.84,0c.42,0,.84,7.094.84,7.558V42.826c0,.464-.42,7.558-.84,7.558S0,43.29,0,42.826V7.558C0,7.094.42,0,.84,0Z" transform="translate(323.552 1360.968)" fill="#fff"/>
    <g id="Group_61" data-name="Group 61" transform="translate(247.915 1402.096)">
      <g id="Group_18" data-name="Group 18" transform="translate(0 0)">
        <path id="Path_34" data-name="Path 34" d="M1865.863,3910.053a7.8,7.8,0,0,1,1.067,4.65,4.464,4.464,0,0,1-2.614,3.308c-3.135,1.565-5.837-.082-7.311-2.341a7.92,7.92,0,0,1-.6-1.131l-.456-2.069-3.66,1.822c-2.052,1.023-2.077,1.3-1.129,3.616l-.689.342-3.417-6.859.689-.343c1.136,1.869,1.44,1.985,3.442.987l9.471-4.714c2.151-1.069,2.144-1.335,1.35-3.212l.724-.359Zm-9.08,2a6.084,6.084,0,0,0,.579,1.9c.76,1.526,2.544,3.053,5.6,1.533a3.757,3.757,0,0,0,1.9-5.449,2.51,2.51,0,0,0-.967-1.2c-.245-.086-.556-.05-1.229.282Z" transform="translate(-1847.05 -3903.75)" fill="#fff"/>
        <path id="Path_35" data-name="Path 35" d="M2142.436,4339.81a8.307,8.307,0,0,1-.6-.763,5.157,5.157,0,0,1-1.177-5.1c.367-1.562,1.009-3.309,1.436-4.774.257-.879.191-1.452-.734-2.521l-.5-.58-3.157,2.747c-1.7,1.479-1.685,1.806-.378,3.585l-.582.5-4.875-5.6.582-.507c1.595,1.556,1.916,1.614,3.616.134l8.022-6.979c1.729-1.5,1.685-1.782.4-3.483l.608-.527,4.609,5.3a7.735,7.735,0,0,1,2.218,3.977,3.923,3.923,0,0,1-1.464,3.676c-1.757,1.529-3.795,1.313-5.706.371-.349.94-.946,2.938-1.329,4.364a22.316,22.316,0,0,0-.676,3.529,3.509,3.509,0,0,0,.338,2.26Zm-.093-13.4a4.6,4.6,0,0,0,2.543,1.752,3.8,3.8,0,0,0,3.452-1.062,3.6,3.6,0,0,0,.4-5.544,2.723,2.723,0,0,0-1.157-.939c-.23-.042-.539.078-1.065.537l-4.979,4.332Z" transform="translate(-2122.72 -4302.699)" fill="#fff"/>
        <path id="Path_36" data-name="Path 36" d="M2704.4,4805.808a8.9,8.9,0,0,1,3.05,12.416c-3.083,4.906-8.665,5.622-13.075,2.852a8.956,8.956,0,0,1-3.072-12.517,9.223,9.223,0,0,1,13.08-2.762Zm-1.051.529c-2.607-1.638-6.426-1.067-9.127,3.231-2.625,4.177-2.136,8.881,1.2,10.977,2.607,1.636,6.3,1.062,9.065-3.331,2.994-4.773,1.937-8.946-1.122-10.861Z" transform="translate(-2662.827 -4775.26)" fill="#fff"/>
        <path id="Path_37" data-name="Path 37" d="M3286.628,5028.738a7.809,7.809,0,0,1,4.159,2.34,4.481,4.481,0,0,1,.688,4.16c-.959,3.369-4,4.264-6.658,3.825a7.8,7.8,0,0,1-1.244-.313l-1.834-1.055-1.116,3.932c-.629,2.205-.437,2.414,1.908,3.271l-.209.739-7.372-2.094.21-.739c2.15.418,2.438.27,3.049-1.879l2.9-10.177c.656-2.313.455-2.484-1.466-3.16l.22-.777Zm-4.635,8.055a5.956,5.956,0,0,0,1.8.855c1.639.466,3.971.178,4.9-3.1a3.757,3.757,0,0,0-2.749-5.073,2.551,2.551,0,0,0-1.54-.092c-.225.125-.409.38-.617,1.1Z" transform="translate(-3229.077 -4990.734)" fill="#fff"/>
        <path id="Path_38" data-name="Path 38" d="M3858.828,5161.052c-.223,1-.838,3.457-1.108,4.312l-13.449-.475.025-.773c2.479-.095,2.729-.34,2.807-2.542l.371-10.5c.087-2.456-.15-2.535-2.27-2.793l.028-.808,12.424.439c.015.7.06,2.479.117,3.984l-.847.083a7.389,7.389,0,0,0-.816-2.36c-.38-.6-1.126-.809-3.015-.877l-2.033-.071c-.9-.033-.958.04-.982.846l-.214,6.009,2.511.092c2.456.084,2.646-.127,3.058-1.931l.826.025-.187,5.264-.824-.03c-.314-1.977-.514-2.128-2.912-2.211l-2.512-.091-.172,4.928c-.048,1.264.077,1.877.581,2.226a6.663,6.663,0,0,0,2.795.41c2,.069,2.827-.085,3.475-.755a9.393,9.393,0,0,0,1.483-2.537Z" transform="translate(-3780.107 -5107.517)" fill="#fff"/>
        <path id="Path_39" data-name="Path 39" d="M4360.657,5119.185a8.452,8.452,0,0,1-.961.153,5.161,5.161,0,0,1-5.042-1.415c-1.188-1.069-2.413-2.476-3.491-3.554-.647-.647-1.187-.866-2.562-.564l-.758.165.895,4.079c.478,2.207.773,2.347,2.962,2.059l.162.753-7.251,1.58-.168-.749c2.13-.653,2.339-.907,1.862-3.11l-2.272-10.387c-.488-2.242-.748-2.331-2.857-2.021l-.175-.788,6.86-1.5a7.742,7.742,0,0,1,4.555-.036,3.926,3.926,0,0,1,2.519,3.052c.5,2.275-.671,3.956-2.416,5.183.656.756,2.127,2.242,3.191,3.263a22.487,22.487,0,0,0,2.771,2.284,3.492,3.492,0,0,0,2.142.788Zm-11.8-6.356a4.606,4.606,0,0,0,2.755-1.389,3.79,3.79,0,0,0,.727-3.539,3.6,3.6,0,0,0-4.671-3.015,2.753,2.753,0,0,0-1.382.564c-.146.183-.187.508-.039,1.19l1.406,6.451Z" transform="translate(-4260.881 -5064.987)" fill="#fff"/>
        <path id="Path_40" data-name="Path 40" d="M4845.146,4812.347a6.456,6.456,0,0,0-1.993-1.788c-.7-.34-1.21-.294-3.063.67l-1.657.867,6.062,11.585c.983,1.885,1.347,2.054,3.723.99l.359.681-7.2,3.769-.356-.685c2.147-1.307,2.228-1.683,1.232-3.58l-6.059-11.582-1.417.738c-2.11,1.1-2.494,1.595-2.557,2.266a8.2,8.2,0,0,0,.338,2.66l-.733.385c-.69-1.605-1.4-3.234-2.045-4.583l.521-.271c.669.414.981.252,1.7-.119l9.846-5.15a1.5,1.5,0,0,0,.956-1.265l.516-.273c.569,1.086,1.662,2.857,2.527,4.225Z" transform="translate(-4733.959 -4778.618)" fill="#fff"/>
        <path id="Path_41" data-name="Path 41" d="M5300.656,4662.445l-.489-.6c1.623-1.546,1.7-1.825.233-3.609l-6.722-8.172c-1.476-1.8-1.771-1.776-3.589-.468l-.511-.625,5.779-4.754.513.628c-1.623,1.522-1.7,1.8-.22,3.6l6.718,8.174c1.469,1.783,1.753,1.763,3.573.478l.488.593Z" transform="translate(-5178.986 -4620.434)" fill="#fff"/>
        <path id="Path_42" data-name="Path 42" d="M5530.39,4323.584c.664.778,2.23,2.764,2.748,3.5l-8.564,10.385-.594-.491c1.432-2.027,1.391-2.373-.311-3.772l-8.107-6.684c-1.891-1.562-2.1-1.428-3.594.1l-.627-.513,7.91-9.593c.563.414,2,1.466,3.23,2.334l-.449.722a7.447,7.447,0,0,0-2.369-.791c-.709-.06-1.33.4-2.527,1.859l-1.295,1.571c-.574.69-.553.781.07,1.295l4.643,3.823,1.6-1.937c1.561-1.892,1.508-2.174.328-3.594l.527-.643,4.059,3.351-.525.636c-1.758-.949-2-.887-3.525.962l-1.6,1.938,3.807,3.142c.975.8,1.535,1.075,2.115.889a6.649,6.649,0,0,0,2.023-1.964c1.275-1.543,1.654-2.3,1.516-3.222a9.035,9.035,0,0,0-1.109-2.714Z" transform="translate(-5393.621 -4303.25)" fill="#fff"/>
        <path id="Path_43" data-name="Path 43" d="M5859.539,3981.449c-1.75-.354-3.861-.479-4.908,1.584a2.828,2.828,0,0,0,1.236,4.016c1.688.852,3.076.137,5.051-1.37,2.063-1.567,4.285-3.156,6.918-1.824,2.57,1.3,3.512,4.525,1.82,7.865a8.492,8.492,0,0,1-1.633,2.254,8.889,8.889,0,0,1-1.119.956,41.557,41.557,0,0,1-4.156-1.259l.16-.842c1.73.357,4.84.431,6.107-2.073a2.929,2.929,0,0,0-1.387-4.255c-1.734-.874-3.215.02-5.139,1.391-1.711,1.27-4.088,3.007-6.721,1.676-2.389-1.208-3.395-4.143-1.781-7.334a11.689,11.689,0,0,1,2.178-2.883c.9.328,1.939.713,3.617,1.295Z" transform="translate(-5724.501 -3976.922)" fill="#fff"/>
      </g>
    </g>
    <g id="Group_60" data-name="Group 60" transform="translate(261.908 1317)">
      <g id="Group_16" data-name="Group 16" transform="translate(0 0)">
        <path id="Path_27" data-name="Path 27" d="M2411.713,1502.766a29.815,29.815,0,0,1,1.12,4.809,27.721,27.721,0,0,1-4.295,3.869c-6.4,4.268-12.07,1.941-14.625-1.89-3.4-5.108-1.509-11.21,4.245-15.046a25.334,25.334,0,0,1,5.075-2.377c1.116,1.244,1.994,2.166,3.062,3.443l-.636.665c-2.471-2.234-4.837-2.188-7.539-.388-4.229,2.819-4.208,7.739-1.8,11.354,3.051,4.576,7.888,5.759,11.785,3.161,2.57-1.714,3.063-4.029,2.7-7.407Z" transform="translate(-2392.222 -1479.738)" fill="#fff"/>
        <path id="Path_28" data-name="Path 28" d="M3084.419,1290.52l-.283-.788c1.656-.87,1.813-1.2,1.042-2.174-.787-.946-1.783-2.134-2.948-3.495l-6.021,2.161c-.021,1.426-.011,2.63.023,3.844,0,1.885.34,2.124,2.538,1.588l.283.788-6.191,2.222-.282-.787c1.72-.936,2.047-1.264,2.163-4.059l.756-16.427.889-.594c3.544,4.212,7.092,8.443,10.682,12.6,1.77,2.1,2.271,2.256,4.158,1.789l.282.789Zm-7.955-13.493-.056.021c-.088,2.593-.128,5.255-.176,7.771l5.14-1.846Z" transform="translate(-3050.723 -1267.454)" fill="#fff"/>
        <path id="Path_29" data-name="Path 29" d="M3620.237,1132.021a8.495,8.495,0,0,1,5.153.6,4.866,4.866,0,0,1,2.438,3.881c.456,3.78-2.212,5.949-5.061,6.635a8.442,8.442,0,0,1-1.378.207l-2.284-.286.531,4.413c.3,2.473.576,2.6,3.293,2.473l.1.832-8.271,1-.1-.831c2.329-.483,2.561-.75,2.267-3.165l-1.381-11.417c-.313-2.592-.586-2.68-2.8-2.552l-.105-.871Zm-1.255,10.029a6.608,6.608,0,0,0,2.159.1c1.843-.223,4.057-1.5,3.61-5.175-.379-3.147-2.556-4.208-4.889-3.927a2.755,2.755,0,0,0-1.583.553c-.171.222-.253.553-.153,1.364Z" transform="translate(-3573.432 -1131.081)" fill="#fff"/>
        <path id="Path_30" data-name="Path 30" d="M4175.771,1131.539l.032-.837c2.436-.085,2.7-.254,2.8-2.763l.449-11.491c.1-2.529-.156-2.719-2.58-2.971l.036-.876,8.126.315-.036.876c-2.414.066-2.682.235-2.779,2.765l-.446,11.49c-.1,2.51.155,2.7,2.555,2.971l-.031.837Z" transform="translate(-4118.475 -1112.401)" fill="#fff"/>
        <path id="Path_31" data-name="Path 31" d="M4568.816,1115.032a7.09,7.09,0,0,0-.425-2.882c-.346-.766-.811-1.088-3.029-1.562l-1.99-.423-2.958,13.9c-.482,2.26-.294,2.646,2.433,3.41l-.173.82-8.637-1.837.171-.82c2.712.393,3.029.134,3.516-2.146l2.955-13.9-1.693-.36c-2.533-.54-3.2-.4-3.716.127a8.922,8.922,0,0,0-1.563,2.458l-.876-.187c.53-1.823,1.067-3.684,1.463-5.251l.624.133c.272.812.646.892,1.5,1.074l11.816,2.513a1.627,1.627,0,0,0,1.675-.4l.622.133c-.275,1.3-.594,3.542-.824,5.286Z" transform="translate(-4483.418 -1106.38)" fill="#fff"/>
        <path id="Path_32" data-name="Path 32" d="M4999.572,1421.667l.359-.756c1.787.563,2.132.44,2.276-.793.117-1.224.255-2.769.4-4.554l-5.776-2.75c-1.022.992-1.872,1.846-2.711,2.728-1.338,1.327-1.268,1.736.663,2.921l-.361.755-5.936-2.827.359-.755c1.874.56,2.336.56,4.4-1.325l12.188-11.041,1.046.21c-.488,5.485-.993,10.985-1.412,16.458-.241,2.732,0,3.2,1.661,4.211l-.363.757Zm3.966-15.151-.05-.025c-1.9,1.766-3.817,3.613-5.638,5.351l4.929,2.347Z" transform="translate(-4905.081 -1393.733)" fill="#fff"/>
        <path id="Path_33" data-name="Path 33" d="M5563.728,1648.225c-.768.665-2.986,2.5-3.773,3.023l-10.844-8.455.516-.661c2.123,1.428,2.451,1.429,4.014-.583l7.037-9.022c1.557-2,1.51-2.259-.342-3.905l.539-.691,6.367,4.963-.539.691c-1.951-1.32-2.273-1.366-3.844.645l-6.969,8.944c-.979,1.257-1.215,1.783-.959,2.362a6.558,6.558,0,0,0,1.951,2c1.242.967,2.184,1.476,3.188,1.294a7.9,7.9,0,0,0,3.059-1.3Z" transform="translate(-5447.693 -1611.175)" fill="#fff"/>
      </g>
    </g>
  </g>
</svg>
